<svg width="1500" height="844" viewBox="0 0 1500 844" fill="none" xmlns="http://www.w3.org/2000/svg">
<path fill-rule="evenodd" clip-rule="evenodd" d="M864.591 161.5C863.216 162.875 861.658 164 861.129 164C860.6 164 860.017 164.338 859.833 164.75C859.354 165.829 851.235 171 850.021 171C849.46 171 849 171.366 849 171.813C849 172.261 847.403 173.253 845.452 174.019C843.5 174.785 841.42 175.994 840.829 176.706C840.239 177.417 838.91 178 837.878 178C836.845 178 836 178.45 836 179C836 179.55 834.875 180 833.5 180C832.125 180 831 180.45 831 181C831 181.55 830.1 182 829 182C827.9 182 826.996 182.338 826.991 182.75C826.987 183.162 824.287 184.341 820.991 185.368C817.696 186.395 815 187.633 815 188.118C815 188.603 813.425 189 811.5 189C809.575 189 808 189.45 808 190C808 190.55 806.677 191 805.059 191C803.441 191 801.84 191.45 801.5 192C801.16 192.55 799.559 193 797.941 193C795.993 193 795 193.507 795 194.5C795 195.611 796.167 196 799.5 196C801.975 196 804 196.45 804 197C804 197.55 804.615 198 805.367 198C806.118 198 807.693 200.31 808.867 203.133C810.618 207.348 811 210.301 811 219.633C811 226.544 811.392 231 812 231C812.655 231 813 251.333 813 290C813 326.209 812.636 349 812.059 349C811.541 349 810.941 354.288 810.724 360.75C810.508 367.212 809.775 377.097 809.096 382.715C808.233 389.854 808.174 393.468 808.9 394.715C809.472 395.697 809.953 395.938 809.97 395.25C809.986 394.563 810.421 394 810.936 394C811.451 394 815.112 390.85 819.07 387C823.028 383.15 826.882 380 827.634 380C828.385 380 829 379.55 829 379C829 377.537 842.865 377.794 847 379.333C852.543 381.397 856 383.251 856 384.161C856 384.622 857.125 385 858.5 385C859.875 385 861 385.45 861 386C861 386.55 861.9 387 863 387C864.1 387 865 387.45 865 388C865 388.55 865.873 389 866.941 389C868.009 389 869.127 389.396 869.426 389.88C870.052 390.893 879.11 394 881.438 394C882.297 394 883 394.45 883 395C883 395.561 885.767 396 889.3 396C892.765 396 896.094 396.494 896.698 397.098C897.4 397.8 899.914 397.97 903.648 397.569C906.867 397.224 912.538 396.693 916.25 396.389C919.962 396.085 923 395.423 923 394.918C923 394.413 923.87 394 924.934 394C927.489 394 939 388.983 939 387.869C939 387.391 940.026 387 941.279 387C942.533 387 944.207 386.1 945 385C945.793 383.9 946.958 383 947.589 383C948.963 383 966 366.709 966 365.395C966 364.891 967.125 363.266 968.5 361.783C969.875 360.301 971 358.393 971 357.544C971 356.695 971.45 356 972 356C972.55 356 973 354.875 973 353.5C973 352.125 973.344 351 973.764 351C974.693 351 978 343.577 978 341.493C978 340.672 978.45 340 979 340C979.55 340 980 338.425 980 336.5C980 334.575 980.45 333 981 333C981.634 333 982 325.5 982 312.5C982 299.5 981.634 292 981 292C980.45 292 979.985 290.988 979.967 289.75C979.933 287.354 976.731 277.398 975.647 276.314C975.291 275.958 975 274.842 975 273.833C975 272.825 974.55 272 974 272C973.45 272 973 271.1 973 270C973 268.9 972.55 268 972 268C971.45 268 971 267.433 971 266.74C971 266.047 969.875 264.266 968.5 262.783C967.125 261.301 966 259.828 966 259.51C966 258.786 959.256 252 958.536 252C958.244 252 956.335 250.425 954.294 248.5C952.253 246.575 950.002 245 949.292 245C948.581 245 948 244.55 948 244C948 243.45 947.138 243 946.083 243C945.029 243 944.017 242.662 943.833 242.25C943.208 240.843 935.939 238 932.966 238C931.335 238 930 237.55 930 237C930 236.394 925.667 236 919 236C912.333 236 908 236.394 908 237C908 237.55 907.115 238 906.034 238C903.842 238 896.686 241.082 896.167 242.25C895.983 242.662 895.185 243 894.393 243C892.531 243 876 259.322 876 261.161C876 261.929 875.1 263.207 874 264C872.9 264.793 872 265.948 872 266.568C872 267.813 868.634 272 867.633 272C867.285 272 867 263.45 867 253C867 241 866.632 234 866 234C865.45 234 865 231.975 865 229.5C865 227.025 865.433 225 865.961 225C866.531 225 867.103 216.555 867.365 204.25C867.796 183.971 868.919 169.379 870.489 163.643C871.044 161.612 870.87 160.531 869.885 159.908C867.834 158.609 867.33 158.761 864.591 161.5ZM565 161C565 161.55 564.293 162 563.429 162C562.564 162 561.289 162.563 560.594 163.25C559.899 163.938 558.081 165.4 556.554 166.5C555.028 167.6 553.185 169.063 552.461 169.75C551.736 170.438 550.436 171 549.571 171C548.707 171 548 171.45 548 172C548 172.55 547.325 173 546.5 173C545.675 173 544.998 173.338 544.996 173.75C544.994 174.162 542.969 175.332 540.496 176.349C538.023 177.366 536 178.604 536 179.099C536 179.595 534.875 180 533.5 180C532.125 180 531 180.45 531 181C531 181.55 530.1 182 529 182C527.9 182 527 182.45 527 183C527 183.55 526.115 184 525.034 184C523.261 184 518.401 185.777 513.764 188.122C512.809 188.605 510.896 189 509.514 189C508.131 189 507 189.45 507 190C507 190.55 505.425 191 503.5 191C501.575 191 500 191.394 500 191.875C500 192.356 498.62 193.026 496.934 193.363C492.985 194.153 494.083 196 498.5 196C500.36 196 502.16 196.45 502.5 197C502.84 197.55 503.991 198 505.059 198C506.333 198 507 198.687 507 200C507 201.1 507.45 202 508 202C508.583 202 509 205.333 509 210C509 214.667 509.417 218 510 218C510.657 218 511 241.833 511 287.5C511 333.167 510.657 357 510 357C509.381 357 509 362.333 509 371C509 379.667 508.619 385 508 385C507.45 385 507 387.025 507 389.5C507 393.395 507.28 394 509.086 394C511.111 394 512.665 392.743 522.995 382.75C526.607 379.256 528.689 378 530.869 378C532.499 378 534.096 377.437 534.417 376.75C534.883 375.75 535.117 375.75 535.583 376.75C535.921 377.473 538.028 378 540.583 378C543.013 378 545 378.45 545 379C545 379.55 545.814 380 546.809 380C547.804 380 549.491 380.661 550.559 381.468C551.626 382.276 553.288 382.951 554.25 382.968C555.212 382.986 556 383.45 556 384C556 384.55 556.9 385 558 385C559.1 385 560 385.45 560 386C560 386.55 561.125 387 562.5 387C563.875 387 565 387.45 565 388C565 388.55 565.452 389 566.005 389C566.558 389 569.342 390.125 572.192 391.5C575.042 392.875 578.64 394 580.187 394C581.734 394 583 394.412 583 394.915C583 395.888 593.206 397.075 601.5 397.066C610.229 397.056 621 395.869 621 394.918C621 394.413 622.575 394 624.5 394C626.425 394 628 393.55 628 393C628 392.45 629.093 392 630.429 392C631.764 392 633.452 391.41 634.179 390.689C634.905 389.967 636.962 388.732 638.75 387.944C640.538 387.156 642 386.172 642 385.756C642 385.34 642.734 385 643.632 385C644.529 385 646.749 383.425 648.565 381.5C650.38 379.575 652.571 378 653.433 378C654.295 378 655.004 377.663 655.009 377.25C655.013 376.837 656.588 374.843 658.509 372.817C660.429 370.791 662 368.858 662 368.521C662 368.185 663.125 366.784 664.5 365.409C665.875 364.034 667 362.354 667 361.675C667 360.997 667.9 359.793 669 359C670.1 358.207 671 357.029 671 356.381C671 355.734 672.12 353.246 673.488 350.852C674.856 348.458 675.981 345.488 675.988 344.25C675.995 343.012 676.45 342 677 342C677.55 342 678 340.65 678 339C678 337.35 678.45 336 679 336C679.55 336 680 334.065 680 331.7C680 329.335 680.477 326.923 681.059 326.341C682.866 324.534 680.819 288 678.911 288C678.41 288 678 286.425 678 284.5C678 282.575 677.55 281 677 281C676.45 281 676 280.186 676 279.191C676 278.196 675.339 276.509 674.532 275.441C673.724 274.374 673.049 272.712 673.032 271.75C673.014 270.788 672.55 270 672 270C671.45 270 671 269.325 671 268.5C671 267.675 670.55 267 670 267C669.45 267 669 266.305 669 265.455C669 264.605 667.987 262.826 666.75 261.503C663.36 257.877 662 256.15 662 255.471C662 254.674 659.326 252 658.529 252C657.85 252 656.123 250.64 652.497 247.25C651.174 246.012 649.62 245 649.045 245C648.47 245 648 244.55 648 244C648 243.45 647.1 243 646 243C644.9 243 644 242.55 644 242C644 241.45 643.151 241 642.114 241C641.077 241 638.94 240.328 637.364 239.506C635.789 238.685 633.514 238.01 632.309 238.006C631.104 238.003 629.84 237.55 629.5 237C629.152 236.437 624.323 236 618.441 236C612.147 236 608 236.397 608 237C608 237.55 606.736 238 605.191 238C603.646 238 601.509 238.661 600.441 239.468C599.374 240.276 597.712 240.951 596.75 240.968C595.788 240.986 595 241.45 595 242C595 242.55 594.531 243 593.958 243C592.784 243 591.393 244.069 586.479 248.75C584.602 250.537 582.795 252 582.462 252C581.672 252 579 254.679 579 255.471C579 256.15 577.64 257.877 574.25 261.503C573.013 262.826 572 264.637 572 265.526C572 267.578 569.613 270 567.59 270C566.737 270 565.788 268.988 565.483 267.75C565.178 266.512 565.084 250.65 565.275 232.5C565.619 199.787 567.38 170.379 569.104 168.55C569.597 168.028 570 165.89 570 163.8C570 160.413 569.728 160 567.5 160C566.125 160 565 160.45 565 161ZM733.25 168.265C728.712 168.779 725 169.605 725 170.1C725 170.595 724.1 171 723 171C721.9 171 721 171.45 721 172C721 172.55 720.079 173 718.952 173C716.57 173 707 182.17 707 184.452C707 185.304 706.55 186 706 186C705.417 186 705 189.333 705 194C705 198.4 705.401 202 705.892 202C706.382 202 707.066 203.125 707.411 204.5C707.756 205.875 708.705 207 709.519 207C710.334 207 711 207.45 711 208C711 208.55 711.675 209 712.5 209C713.325 209 714 209.382 714 209.848C714 210.783 719.252 213.117 725.59 215C727.84 215.668 731.89 215.984 734.59 215.701C741.627 214.966 750 212.883 750 211.867C750 211.39 750.9 211 752 211C753.1 211 754 210.55 754 210C754 209.45 754.675 209 755.5 209C756.325 209 757 208.55 757 208C757 207.45 757.69 207 758.534 207C760.47 207 766 201.42 766 199.466C766 198.659 766.45 198 767 198C767.55 198 768 197.325 768 196.5C768 195.675 768.45 195 769 195C769.564 195 770 192.167 770 188.5C770 184.833 769.564 182 769 182C768.45 182 768 181.29 768 180.422C768 178.401 760.568 171 758.539 171C757.693 171 757 170.582 757 170.072C757 169.562 754.413 168.863 751.25 168.519C748.087 168.176 744.6 167.768 743.5 167.612C742.4 167.457 737.788 167.751 733.25 168.265ZM1035.86 167.999C1029.04 168.862 1021 171.145 1021 172.218C1021 172.648 1020.32 173 1019.5 173C1018.68 173 1018 173.42 1018 173.933C1018 174.446 1017.21 175.118 1016.25 175.427C1013.14 176.424 1009 180.673 1009 182.866C1009 184.04 1008.66 185 1008.24 185C1007.41 185 1005 192.063 1005 194.5C1005 196.937 1007.41 204 1008.24 204C1008.66 204 1009 204.482 1009 205.071C1009 206.456 1011.54 209 1012.93 209C1013.52 209 1014 209.45 1014 210C1014 210.55 1014.86 211 1015.92 211C1016.97 211 1017.99 211.474 1018.18 212.053C1019.1 214.784 1035.24 216.83 1041.42 214.999C1047.75 213.128 1058.46 208.699 1058.83 207.804C1059.02 207.362 1060.03 207 1061.08 207C1062.14 207 1063 206.49 1063 205.867C1063 205.244 1063.8 204.007 1064.78 203.117C1067.7 200.456 1070 196.234 1070 193.535C1070 192.141 1070.45 191 1071 191C1071.55 191 1072 190.1 1072 189C1072 187.9 1071.55 187 1071 187C1070.45 187 1070 185.425 1070 183.5C1070 181.575 1069.55 180 1069 180C1068.45 180 1068 179.388 1068 178.64C1068 177.892 1066.83 176.43 1065.39 175.39C1063.95 174.351 1062.19 172.938 1061.46 172.25C1060.74 171.563 1059.66 171 1059.07 171C1058.48 171 1058 170.586 1058 170.08C1058 169.573 1054.96 168.862 1051.25 168.499C1047.54 168.136 1043.82 167.715 1043 167.563C1042.18 167.411 1038.96 167.607 1035.86 167.999ZM768 233C768 233.55 767.138 234 766.083 234C765.029 234 764.017 234.338 763.833 234.75C763.65 235.162 761.737 236.4 759.581 237.5C752.763 240.98 752 241.457 752 242.237C752 242.657 750.875 243 749.5 243C748.125 243 747 243.45 747 244C747 244.55 746.34 245 745.534 245C743.726 245 736.623 248.222 736.167 249.25C735.983 249.662 734.521 250 732.917 250C731.313 250 730 250.45 730 251C730 251.55 728.462 252 726.583 252C724.704 252 723.017 252.349 722.833 252.775C722.339 253.924 706.679 259 703.629 259C702.183 259 701 259.45 701 260C701 260.55 699.425 261 697.5 261C695.185 261 694 261.469 694 262.385C694 263.314 695.818 263.997 699.53 264.461C704.887 265.13 706.225 265.959 710.75 271.41C711.438 272.238 712 274.285 712 275.958C712 277.631 712.45 279 713 279C713.652 279 714 294.333 714 323C714 351.667 713.652 367 713 367C712.45 367 712 368.818 712 371.04C712 379.101 704.978 388.321 697.932 389.512C686.88 391.379 697.382 392 740 392C770.748 392 786 391.66 786 390.975C786 390.411 784.645 389.679 782.99 389.348C779.635 388.677 772 381.836 772 379.501C772 378.675 771.55 378 771 378C770.45 378 770 376.425 770 374.5C770 372.575 769.55 371 769 371C768.345 371 768 351.167 768 313.5C768 275.833 768.345 256 769 256C769.611 256 770 251.333 770 244C770 236.667 769.611 232 769 232C768.45 232 768 232.45 768 233ZM1068 233C1068 233.55 1067.32 234 1066.5 234C1065.68 234 1065 234.45 1065 235C1065 235.55 1064.1 236 1063 236C1061.9 236 1061 236.45 1061 237C1061 237.55 1060.38 238 1059.62 238C1058.86 238 1057.69 238.675 1057 239.5C1056.31 240.325 1054.91 241 1053.88 241C1052.85 241 1052 241.45 1052 242C1052 242.55 1050.88 243 1049.5 243C1048.12 243 1047 243.382 1047 243.85C1047 244.897 1035.16 250.007 1032.75 250.003C1031.79 250.001 1031 250.45 1031 251C1031 251.55 1029.65 252 1028 252C1026.35 252 1025 252.45 1025 253C1025 253.55 1024.21 254.002 1023.25 254.004C1022.29 254.007 1018.35 255.122 1014.5 256.483C1010.65 257.844 1006.26 258.967 1004.75 258.979C1003.24 258.991 1002 259.45 1002 260C1002 260.55 1000.2 261 998 261C995.8 261 994 261.429 994 261.953C994 262.852 1000.1 264.982 1002.7 264.994C1005.01 265.005 1009 267.33 1009 268.661C1009 269.397 1009.34 270 1009.76 270C1011.61 270 1013.18 274.872 1014.59 285.007C1017.39 305.15 1015.42 371.814 1011.91 375.45C1011.41 375.973 1011 377.435 1011 378.7C1011 379.965 1010.55 381 1010 381C1009.45 381 1009 381.9 1009 383C1009 384.111 1008.33 385 1007.5 385C1006.68 385 1006 385.34 1006 385.756C1006 386.524 1002.33 388.288 998.25 389.478C991.216 391.531 999.352 392 1042 392C1068.33 392 1088 391.618 1088 391.107C1088 390.024 1085.53 389 1082.92 389C1081.86 389 1081 388.55 1081 388C1081 387.45 1080.29 387 1079.41 387C1077.64 387 1074.08 383.196 1074.03 381.25C1074.01 380.563 1073.55 380 1073 380C1072.45 380 1072 378.65 1072 377C1072 375.35 1071.59 374 1071.1 374C1069.23 374 1068.76 362.193 1068.82 316.5C1068.89 266.138 1069.55 245 1071.06 245C1071.58 245 1072 242.075 1072 238.5C1072 232.667 1071.79 232 1070 232C1068.9 232 1068 232.45 1068 233ZM579.5 264.156C576.072 266.032 570 272.911 570 274.919C570 275.972 569.572 276.983 569.048 277.167C564.301 278.829 564.307 345.509 569.055 354.236C569.575 355.191 570 356.879 570 357.986C570 359.094 570.45 360 571 360C571.55 360 572 361.575 572 363.5C572 365.425 572.337 367.003 572.75 367.006C573.609 367.014 577 372.682 577 374.112C577 375.7 588.793 387 590.451 387C591.303 387 592 387.382 592 387.848C592 389.67 602.429 392 610.581 392C618.602 392 626 389.992 626 387.815C626 387.367 626.51 387 627.134 387C628.787 387 632.997 381.795 632.999 379.75C632.999 378.788 633.45 378 634 378C634.55 378 635 376.29 635 374.2C635 372.11 635.483 369.917 636.074 369.326C637.617 367.783 635.56 335 633.921 335C633.414 335 633 332.525 633 329.5C633 326.475 632.55 324 632 324C631.45 324 630.984 322.988 630.965 321.75C630.945 320.512 630.286 318.375 629.5 317C628.714 315.625 628.055 313.488 628.035 312.25C628.016 311.012 627.55 310 627 310C626.45 310 626 308.65 626 307C626 305.35 625.55 304 625 304C624.45 304 624 303.316 624 302.48C624 301.644 622.977 299.282 621.727 297.23C620.477 295.179 618.826 292.262 618.058 290.75C617.29 289.238 616.288 288 615.831 288C615.374 288 615 287.1 615 286C615 284.9 614.55 284 614 284C613.45 284 613 283.518 613 282.929C613 281.544 610.456 279 609.071 279C608.482 279 608 278.535 608 277.967C608 276.893 601.503 270 600.492 270C600.175 270 598.974 269.122 597.823 268.05C596.672 266.977 594.441 265.816 592.865 265.47C591.289 265.124 590 264.427 590 263.921C590 262.641 581.937 262.822 579.5 264.156ZM881 264C881 264.55 880.373 265 879.606 265C877.962 265 872 270.346 872 271.82C872 272.38 871.249 274.337 870.331 276.169C869.413 278.001 868.288 280.281 867.831 281.236C867.374 282.191 867 286.804 867 291.486C867 296.495 866.588 300 866 300C865.45 300 865 300.9 865 302C865 303.1 865.45 304 866 304C866.635 304 867 311.647 867 324.941C867 337.823 867.385 346.12 868 346.5C868.55 346.84 869.016 348.554 869.035 350.309C869.055 352.064 869.714 354.625 870.5 356C871.286 357.375 871.945 359.738 871.965 361.25C871.984 362.762 872.45 364 873 364C873.55 364 874 365.125 874 366.5C874 367.875 874.45 369 875 369C875.55 369 876 369.468 876 370.04C876 372.431 886.889 385 888.96 385C889.532 385 890 385.389 890 385.863C890 386.338 892.644 387.913 895.875 389.363C900.832 391.588 903.171 392 910.841 392C922.971 392 928.214 389.61 933.252 381.785C934.213 380.292 935 377.93 935 376.535C935 375.141 935.471 374 936.047 374C937.337 374 936.726 344.349 935.253 335.5C934.065 328.361 931.989 320.872 930.831 319.55C930.374 319.028 930 317.34 930 315.8C930 314.26 929.55 313 929 313C928.45 313 928 311.425 928 309.5C928 307.575 927.663 305.998 927.25 305.996C926.837 305.994 925.668 303.969 924.651 301.496C923.634 299.023 922.396 297 921.901 297C921.405 297 921 295.875 921 294.5C921 293.125 920.55 292 920 292C919.45 292 919 291.305 919 290.455C919 289.605 917.875 287.784 916.5 286.409C915.125 285.034 914 283.521 914 283.046C914 280.743 900.073 268.218 894.723 265.709C889.014 263.032 881 262.034 881 264ZM1073.25 404.496C1072.56 405.277 1072 406.835 1072 407.958C1072 409.081 1071.55 410 1071 410C1070.45 410 1070 410.9 1070 412C1070 413.1 1069.55 414 1069 414C1068.45 414 1068 414.655 1068 415.455C1068 416.255 1066.88 418.034 1065.5 419.409C1064.12 420.784 1063 422.457 1063 423.126C1063 423.795 1060.97 426.283 1058.5 428.655C1056.03 431.026 1054 433.219 1054 433.529C1054 434.25 1049.27 439 1048.55 439C1048.25 439 1046.33 440.575 1044.29 442.5C1042.25 444.425 1040.1 446 1039.51 446C1038.92 446 1037.79 446.9 1037 448C1036.21 449.1 1034.74 450 1033.74 450C1032.04 450 1031.06 450.589 1027.54 453.75C1026.77 454.438 1025.46 455 1024.63 455C1023.8 455 1022.84 455.45 1022.5 456C1022.16 456.55 1021.01 457 1019.94 457C1018.87 457 1018 457.45 1018 458C1018 458.55 1016.42 459 1014.5 459C1012.58 459 1011 459.45 1011 460C1011 460.55 1009.99 461.006 1008.75 461.014C1004.52 461.039 1002 462.198 1002 464.117C1002 465.795 1002.82 466 1009.57 466C1014.8 466 1017.58 466.442 1018.57 467.429C1019.78 468.634 1020 477.929 1020 526.894C1020 586.676 1020.15 589.28 1024.03 596.236C1024.56 597.191 1025 598.654 1025 599.486C1025 600.319 1025.45 601 1026 601C1026.55 601 1027 601.9 1027 603C1027 604.1 1027.45 605 1028 605C1028.55 605 1029 605.482 1029 606.071C1029 607.222 1031.46 610 1032.47 610C1032.81 610 1034.17 611.013 1035.5 612.25C1039.89 616.358 1040.9 617 1042.96 617C1044.08 617 1045 617.45 1045 618C1045 618.55 1046.58 619 1048.5 619C1050.42 619 1052 619.45 1052 620C1052 620.55 1054.47 621 1057.5 621C1060.53 621 1063 620.55 1063 620C1063 619.45 1065.03 619 1067.5 619C1069.97 619 1072 618.55 1072 618C1072 617.45 1073.12 617 1074.5 617C1075.88 617 1077 616.55 1077 616C1077 615.45 1077.9 615 1079 615C1080.1 615 1081 614.559 1081 614.019C1081 613.48 1082.12 612.756 1083.5 612.411C1084.88 612.066 1086 611.382 1086 610.892C1086 610.401 1086.69 610 1087.54 610C1088.38 610 1091.04 607.975 1093.45 605.5C1095.85 603.025 1098.1 601 1098.44 601C1099.23 601 1106 594.269 1106 593.49C1106 593.172 1108.36 590.57 1111.25 587.706C1116.6 582.4 1119.83 577.499 1118.72 576.382C1118.08 575.749 1115 578.335 1115 579.5C1115 580.749 1112.12 583 1110.53 583C1109.64 583 1107.78 584.125 1106.41 585.5C1105.03 586.875 1103.25 588 1102.45 588C1101.65 588 1101 588.45 1101 589C1101 589.55 1099.01 590 1096.58 590C1094.03 590 1091.92 590.527 1091.58 591.25C1091.12 592.25 1090.88 592.25 1090.42 591.25C1090.1 590.563 1088.86 589.993 1087.67 589.984C1085.02 589.965 1079 584.848 1079 582.618C1079 581.728 1078.59 581 1078.08 581C1077.57 581 1076.45 577.874 1075.58 574.053C1074.26 568.241 1074 559.256 1074 519.1C1074 484.799 1074.33 470.367 1075.16 468.547L1076.32 466H1093.16C1109.14 466 1110 465.901 1110 464.067C1110 462.249 1109.03 462.116 1093.68 461.817C1079.88 461.549 1077.09 461.235 1075.64 459.787C1074.07 458.213 1074.01 456.396 1074.96 437.287C1076.19 412.613 1076.27 402.986 1075.25 403.038C1074.84 403.059 1073.94 403.715 1073.25 404.496ZM590.25 414.525C589.013 415.847 588 417.19 588 417.51C588 417.829 586.987 419.191 585.75 420.534C580.063 426.711 579 427.967 579 428.512C579 428.833 576.862 431.325 574.25 434.049C565.552 443.121 563 445.939 563 446.469C563 446.759 561.425 448.665 559.5 450.706C557.575 452.747 556 454.793 556 455.252C556 455.711 553.525 458.504 550.5 461.457C547.475 464.41 545 467.087 545 467.406C545 467.724 544.127 469.001 543.061 470.242C541.994 471.484 540.211 473.562 539.098 474.859C537.406 476.834 536.866 476.997 535.788 475.859C534.391 474.385 532.552 469.404 531.505 464.261C531.143 462.48 530.431 460.766 529.923 460.452C529.415 460.139 529 458.559 529 456.941C529 455.323 528.55 454 528 454C527.45 454 527 452.2 527 450C527 447.8 526.55 446 526 446C525.45 446 525 445.155 525 444.122C525 441.166 522.044 434.855 520.97 435.519C520.436 435.848 520 437.666 520 439.559C520 441.452 519.55 443 519 443C518.444 443 518 445.667 518 449C518 452.3 517.587 455 517.082 455C516.577 455 515.947 458.038 515.682 461.75C515.023 470.968 512.965 479.8 511.329 480.427C509.763 481.028 505 479.081 505 477.839C505 477.378 504.325 477 503.5 477C502.675 477 502 476.605 502 476.121C502 475.638 500.682 474.697 499.072 474.03C497.461 473.363 495.9 472.183 495.603 471.408C495.306 470.634 494.248 470 493.252 470C492.256 470 490.793 469.1 490 468C489.207 466.9 488.189 466 487.737 466C487.285 466 486.372 465.541 485.708 464.98C480.141 460.281 478.332 459.002 477.25 459.001C476.563 459.001 476 458.55 476 458C476 457.45 475.53 457 474.956 457C474.382 457 472.699 455.875 471.217 454.5C469.734 453.125 468.053 452 467.481 452C466.909 452 465.793 451.1 465 450C464.207 448.9 462.758 448 461.779 448C460.801 448 460 447.55 460 447C460 446.45 459.531 446 458.958 446C457.977 446 456.846 445.218 453.537 442.25C452.77 441.563 451.661 441 451.071 441C450.482 441 450 440.55 450 440C450 439.45 449.1 439 448 439C446.9 439 445.981 438.438 445.958 437.75C445.915 436.487 439.651 432 437.931 432C437.419 432 437 431.55 437 431C437 430.45 436.55 430 436 430C435.45 430 435 430.9 435 432C435 433.1 435.45 434 436 434C436.55 434 437 434.51 437 435.133C437 435.756 437.788 437 438.75 437.897C440.841 439.847 442.838 442.846 443.646 445.25C443.969 446.212 444.631 447 445.117 447C445.602 447 446 447.675 446 448.5C446 449.325 446.45 450 447 450C447.55 450 448 450.567 448 451.26C448 451.953 449.125 453.734 450.5 455.217C451.875 456.699 453 458.607 453 459.456C453 460.305 453.45 461 454 461C454.55 461 455 461.482 455 462.071C455 462.661 455.563 463.77 456.25 464.537C459.218 467.846 460 468.977 460 469.958C460 470.531 460.45 471 461 471C461.55 471 462 471.675 462 472.5C462 473.325 462.45 474 463 474C463.55 474 464 474.675 464 475.5C464 476.325 464.45 477 465 477C465.55 477 466 477.482 466 478.071C466 478.661 466.563 479.77 467.25 480.537C470.361 484.005 471 485.015 471 486.458C471 487.306 471.45 488 472 488C472.55 488 473 488.637 473 489.417C473 490.196 473.357 490.983 473.793 491.167C474.229 491.35 475.613 493.185 476.87 495.244C479.004 498.739 479.045 499.098 477.487 500.656C476.37 501.772 475.596 501.965 475.147 501.238C474.739 500.577 468.603 499.933 459.488 499.593C451.245 499.286 438.65 498.816 431.5 498.55C424.35 498.284 419.063 498.314 419.75 498.617C420.438 498.919 421 499.804 421 500.583C421 501.363 421.9 502 423 502C424.1 502 425 502.45 425 503C425 503.55 425.48 504 426.067 504C426.654 504 428.62 505.575 430.435 507.5C432.251 509.425 434.244 511 434.866 511C435.487 511 437.665 512.575 439.706 514.5C441.747 516.425 443.899 518 444.488 518C445.077 518 446.207 518.9 447 520C447.793 521.1 448.811 522 449.263 522C450.141 522 451.657 523.154 455.503 526.75C456.826 527.987 458.175 529 458.5 529C458.825 529 460.216 530.125 461.591 531.5C462.966 532.875 464.52 534 465.045 534C465.57 534 466 534.9 466 536C466 537.333 465.333 538 464 538C462.9 538 462 538.45 462 539C462 539.55 460.538 539.996 458.75 539.992C455.677 539.984 445.161 542.106 438.429 544.094C436.74 544.592 433.702 545 431.679 545C429.656 545 428 545.45 428 546C428 546.55 425.75 547 423 547C420.25 547 418 547.405 418 547.899C418 548.394 416.087 549.033 413.75 549.32C411.413 549.607 406.35 550.57 402.5 551.46C398.65 552.35 393.587 553.345 391.25 553.669C387.279 554.221 385.18 556 388.5 556C389.325 556 390 556.388 390 556.861C390 557.335 392.587 558.013 395.75 558.369C398.913 558.724 405.325 559.729 410 560.601C414.675 561.474 421.538 562.408 425.25 562.676C428.962 562.944 432 563.577 432 564.082C432 564.587 435.15 565 439 565C443 565 446 565.429 446 566C446 566.563 448.814 567 452.441 567C455.984 567 459.16 567.45 459.5 568C459.84 568.55 462.131 569 464.591 569C469.292 569 476 571.248 476 572.823C476 573.332 474.425 575.468 472.5 577.57C470.575 579.671 469 581.753 469 582.195C469 582.638 468.518 583 467.929 583C466.778 583 464 585.456 464 586.474C464 587.277 459.277 592 458.474 592C457.673 592 455 594.673 455 595.474C455 595.813 453.875 597.216 452.5 598.591C451.125 599.966 450 601.49 450 601.978C450 602.466 449.1 603.151 448 603.5C446.9 603.849 446 604.557 446 605.073C446 605.589 443.975 608.008 441.5 610.448C439.025 612.888 437 615.36 437 615.942C437 616.524 436.53 617 435.955 617C434.878 617 430 621.475 430 622.463C430 622.767 427.075 625.885 423.5 629.39C419.925 632.895 417 636.042 417 636.382C417 636.722 417.9 637 419 637C420.1 637 421 636.55 421 636C421 635.45 422.088 635 423.417 635C424.746 635 425.983 634.618 426.167 634.152C426.628 632.977 435.759 628 437.452 628C438.212 628 438.983 627.641 439.167 627.203C439.35 626.764 441.525 625.428 444 624.233C449.92 621.373 454.419 618.681 454.833 617.75C455.017 617.337 455.768 617 456.502 617C458.223 617 463.985 613.731 463.994 612.75C463.997 612.337 464.9 612 466 612C467.1 612 468 611.55 468 611C468 610.45 469.125 610 470.5 610C471.875 610 473 609.642 473 609.205C473 608.768 475.025 607.575 477.5 606.554C479.975 605.534 482 604.316 482 603.849C482 603.382 482.9 603 484 603C485.1 603 486 602.55 486 602C486 601.45 486.675 601 487.5 601C488.325 601 489 600.55 489 600C489 599.45 489.9 599 491 599C492.1 599 493 598.599 493 598.108C493 597.618 494.125 596.934 495.5 596.589C496.875 596.244 498 595.52 498 594.981C498 594.441 498.9 594 500 594C501.1 594 502 593.55 502 593C502 592.45 502.738 592 503.639 592C505.029 592 505.184 592.799 504.658 597.244C504.316 600.128 503.578 602.641 503.018 602.827C502.458 603.014 502 604.254 502 605.583C502 606.913 501.55 608 501 608C500.45 608 500 609.575 500 611.5C500 613.425 499.55 615 499 615C498.45 615 497.985 616.013 497.967 617.25C497.933 619.646 494.731 629.602 493.647 630.686C493.291 631.042 493 632.608 493 634.167C493 635.725 492.55 637 492 637C491.45 637 491 638.575 491 640.5C491 642.425 490.55 644 490 644C489.45 644 489 645.275 489 646.833C489 648.392 488.709 649.958 488.353 650.314C487.394 651.273 484.07 661.225 484.033 663.25C484.015 664.212 483.55 665 483 665C482.45 665 482 666.8 482 669C482 671.2 481.601 673 481.113 673C479.973 673 479.079 678.931 480.122 679.575C480.853 680.027 491 670.648 491 669.521C491 668.938 494.47 664.762 497.75 661.398C498.988 660.129 500 658.825 500 658.5C500 658.175 501.012 656.809 502.25 655.466C507.967 649.257 509 648.03 509 647.452C509 647.112 510.575 645.304 512.5 643.434C514.425 641.565 516 639.577 516 639.018C516 638.458 516.45 638 517 638C517.55 638 518 637.533 518 636.963C518 636.392 520.025 633.957 522.5 631.552C524.975 629.146 527 626.917 527 626.597C527 625.871 530.479 621.734 534.75 617.38C536.538 615.558 538 613.602 538 613.033C538 612.465 539.575 612 541.5 612C543.944 612 545 612.452 545 613.5C545 614.325 545.675 615 546.5 615C547.325 615 548 615.45 548 616C548 616.55 548.675 617 549.5 617C550.325 617 551 617.45 551 618C551 618.55 551.675 619 552.5 619C553.325 619 554.003 619.337 554.007 619.75C554.011 620.163 555.573 621.562 557.48 622.86C559.386 624.158 562.195 626.295 563.723 627.609C565.25 628.923 566.817 629.998 567.205 629.999C567.592 629.999 569.034 631.125 570.409 632.5C571.784 633.875 573.38 635 573.955 635C574.53 635 575 635.45 575 636C575 636.55 575.695 637 576.545 637C577.395 637 579.174 638.013 580.497 639.25C584.04 642.562 585.847 644 586.467 644C586.77 644 588.431 645.35 590.157 647C591.884 648.65 593.659 650 594.103 650C594.546 650 596.034 651.125 597.409 652.5C598.784 653.875 600.286 655 600.746 655C601.207 655 603.253 656.575 605.294 658.5C607.335 660.425 609.679 662 610.502 662C611.326 662 612 662.45 612 663C612 663.55 612.638 664 613.417 664C614.196 664 615.034 664.563 615.28 665.25C615.539 665.977 616.097 666.129 616.613 665.613C617.129 665.097 616.977 664.539 616.25 664.28C615.563 664.034 615 662.746 615 661.417C615 660.087 614.55 659 614 659C613.45 659 613 658.1 613 657C613 655.9 612.618 655 612.151 655C611.684 655 610.466 652.975 609.446 650.5C608.425 648.025 607.232 646 606.795 646C606.358 646 606 644.875 606 643.5C606 642.125 605.55 641 605 641C604.45 641 604 640.1 604 639C604 637.9 603.637 637 603.192 637C602.183 637 599 629.911 599 627.664C599 626.749 598.55 626 598 626C597.45 626 597 625.325 597 624.5C597 623.675 596.55 623 596 623C595.45 623 595 622.132 595 621.071C595 620.011 594.325 618.468 593.5 617.643C592.675 616.818 592 615.436 592 614.571C592 613.707 591.55 613 591 613C590.45 613 590 611.875 590 610.5C590 609.125 589.55 608 589 608C588.45 608 588 607.445 588 606.766C588 605.196 582.749 594.611 581.75 594.167C581.337 593.983 581 592.971 581 591.917C581 590.17 581.797 590 590 590C595.333 590 599 590.407 599 591C599 591.6 603 592 609 592C614.5 592 619 592.394 619 592.875C619 593.805 635.637 595.021 637.75 594.245C639.248 593.695 639.424 592 637.982 592C637.423 592 635.435 590.425 633.566 588.5C631.696 586.575 629.872 585 629.512 585C629.152 585 625.975 582.103 622.451 578.562C618.928 575.022 615.4 571.759 614.612 571.312C613.824 570.866 610.439 568.065 607.09 565.088C601.269 559.916 599.292 556 602.5 556C603.325 556 604 555.595 604 555.099C604 554.604 606.023 553.366 608.496 552.349C610.969 551.332 612.994 550.163 612.996 549.75C612.998 549.337 613.9 549 615 549C616.1 549 617 548.55 617 548C617 547.45 617.862 547 618.917 547C619.971 547 620.983 546.663 621.167 546.25C621.35 545.837 624.087 544.188 627.25 542.584C630.413 540.98 633 539.292 633 538.834C633 538.375 634.125 538 635.5 538C636.875 538 638 537.55 638 537C638 536.45 638.9 536 640 536C641.1 536 642.003 535.663 642.006 535.25C642.015 534.244 647.797 531 649.581 531C650.361 531 651 530.55 651 530C651 529.45 651.9 529 653 529C655.879 529 655.461 527.422 652.25 526.17C649.377 525.05 635.611 523.02 625.75 522.264C622.587 522.021 620 521.412 620 520.911C620 520.41 616.175 520 611.5 520C606.825 520 603 519.576 603 519.057C603 518.539 601.122 517.977 598.828 517.807C596.533 517.638 594.497 517.018 594.304 516.43C593.865 515.09 597.329 511 598.905 511C599.548 511 602.043 508.975 604.448 506.5C606.854 504.025 609.346 502 609.988 502C610.629 502 612.42 500.762 613.968 499.25C618.227 495.089 620.915 493 622.011 493C622.555 493 623 492.55 623 492C623 491.45 623.471 491 624.048 491C624.624 491 626.138 489.875 627.412 488.5C628.687 487.125 630.24 486 630.865 486C631.489 486 632 485.55 632 485C632 484.45 632.488 484 633.083 484C633.679 484 635.696 482.425 637.566 480.5C639.435 478.575 641.455 477 642.054 477C643.382 477 646 474.491 646 473.218C646 472.069 635.626 472.949 635.167 474.137C634.983 474.612 632.846 475 630.417 475C627.987 475 626 475.45 626 476C626 476.55 623.975 477 621.5 477C619.025 477 617 477.403 617 477.895C617 478.387 615.313 479.023 613.25 479.309C608.941 479.904 600.91 481.697 596.429 483.064C594.74 483.579 591.027 484 588.179 484C583.19 484 583.001 483.899 583.024 481.25C583.038 479.738 583.533 476.475 584.125 474C585.666 467.556 587.078 458.479 587.664 451.25C587.943 447.813 588.582 445 589.085 445C589.588 445 590 442.525 590 439.5C590 436.475 590.45 434 591 434C591.55 434 592 432.672 592 431.049C592 429.426 592.675 425.506 593.5 422.339C596.147 412.177 595.009 409.442 590.25 414.525ZM746 458C746 458.55 744.194 459 741.986 459C739.779 459 737.191 459.409 736.236 459.91C732.473 461.882 721.788 466 720.434 466C719.645 466 719 466.45 719 467C719 467.55 718.325 468 717.5 468C716.675 468 716 468.348 716 468.773C716 469.198 714.425 470.393 712.5 471.43C710.575 472.467 709 473.694 709 474.157C709 474.621 708.298 475 707.44 475C705.692 475 691 489.692 691 491.439C691 492.055 690.1 493.207 689 494C687.9 494.793 687 496.017 687 496.721C687 497.424 686.55 498 686 498C685.45 498 685 498.9 685 500C685 501.1 684.663 502.003 684.25 502.006C683.244 502.015 680 507.797 680 509.581C680 510.361 679.55 511 679 511C678.45 511 678 512.575 678 514.5C678 516.425 677.55 518 677 518C676.45 518 676 519.139 676 520.532C676 521.925 675.325 524.68 674.5 526.654C672.508 531.422 672.526 549.942 674.529 555.5C675.321 557.7 675.977 560.737 675.985 562.25C675.993 563.763 676.45 565 677 565C677.55 565 678 566.575 678 568.5C678 570.425 678.45 572 679 572C679.55 572 680 572.659 680 573.465C680 575.219 684.946 584.359 686.152 584.833C686.618 585.017 687 585.804 687 586.583C687 587.363 687.45 588 688 588C688.55 588 689 588.9 689 590C689 591.1 689.47 592 690.045 592C691.161 592 696 596.491 696 597.526C696 598.325 698.672 601 699.471 601C700.15 601 701.877 602.36 705.503 605.75C706.826 606.987 708.605 608 709.455 608C710.305 608 711 608.45 711 609C711 609.55 712.125 610 713.5 610C714.875 610 716 610.45 716 611C716 611.55 716.482 612 717.071 612C717.661 612 718.818 612.675 719.643 613.5C720.468 614.325 721.984 615 723.012 615C724.041 615 725.16 615.45 725.5 616C725.84 616.55 727.441 617 729.059 617C730.677 617 732 617.413 732 617.918C732 619.567 762.777 621.623 764.323 620.077C764.915 619.485 768.01 619 771.2 619C774.4 619 777 618.552 777 618C777 617.45 778.575 617 780.5 617C782.425 617 784 616.55 784 616C784 615.45 784.672 615 785.493 615C787.577 615 795 611.693 795 610.764C795 610.344 796.125 610 797.5 610C798.875 610 800 609.55 800 609C800 608.45 800.9 608 802 608C803.1 608 804 607.58 804 607.067C804 606.554 804.848 605.866 805.884 605.537C806.919 605.208 809.165 603.603 810.874 601.97C812.583 600.336 814.366 599 814.835 599C816.362 599 827 588.089 827 586.522C827 583.931 826.092 584.396 818.292 590.98C817.628 591.541 816.203 592 815.126 592C814.048 592 813.002 592.495 812.8 593.099C812.3 594.6 786.693 594.58 786.193 593.079C785.995 592.486 784.296 592 782.417 592C780.538 592 779 591.55 779 591C779 590.45 778.34 590 777.534 590C775.328 590 768.718 586.745 766.883 584.754C765.993 583.789 764.531 583 763.633 583C762.735 583 762 582.55 762 582C762 581.45 761.325 581 760.5 581C759.675 581 759 580.325 759 579.5C759 578.675 758.588 578 758.084 578C757.021 578 741 562.619 741 561.599C741 561.223 740.541 560.372 739.98 559.708C735.281 554.141 734.002 552.332 734.001 551.25C734.001 550.563 733.55 550 733 550C732.45 550 732 549.325 732 548.5C732 547.675 731.55 547 731 547C730.45 547 730 546.127 730 545.059C730 543.991 729.55 542.84 729 542.5C728.45 542.16 728 541.009 728 539.941C728 538.075 728.905 538 751.5 538C766.5 538 775 537.638 775 537C775 536.361 783.793 536 799.378 536H823.757L824.958 531.75C828.402 519.558 830.241 502 828.073 502C827.483 502 827 500.665 827 499.034C827 497.403 826.355 494.59 825.566 492.784C824.777 490.978 823.542 488.038 822.822 486.25C822.101 484.462 821.172 483 820.756 483C820.34 483 820 482.325 820 481.5C820 480.675 819.55 480 819 480C818.45 480 818 479.325 818 478.5C818 477.675 817.519 477 816.932 477C816.344 477 813.923 474.975 811.552 472.5C809.18 470.025 806.511 468 805.62 468C804.729 468 803.995 467.663 803.989 467.25C803.982 466.837 802.295 465.736 800.239 464.803C798.182 463.869 794.503 462.181 792.062 461.053C789.621 459.924 785.909 459 783.812 459C781.715 459 780 458.55 780 458C780 457.373 773.667 457 763 457C752.333 457 746 457.373 746 458ZM903 458C903 458.55 900.525 459 897.5 459C894.475 459 892 459.399 892 459.886C892 460.374 890.073 461.062 887.717 461.415C885.362 461.768 881.976 462.944 880.193 464.029C878.41 465.113 876.288 466 875.476 466C874.664 466 874 466.45 874 467C874 467.55 873.1 468 872 468C870.9 468 870 468.45 870 469C870 469.55 869.518 470 868.929 470C868.339 470 867.242 470.563 866.491 471.25C865.74 471.938 863.522 473.846 861.563 475.49C859.603 477.135 858 479.048 858 479.74C858 480.433 857.55 481 857 481C856.45 481 856 481.482 856 482.071C856 482.661 855.337 483.806 854.527 484.616C853.716 485.426 852.549 487.982 851.933 490.295C851.317 492.608 850.405 495.281 849.906 496.236C848.69 498.567 848.752 504.729 850 505.5C850.55 505.84 851 507.048 851 508.184C851 510.791 855.979 522 857.137 522C857.611 522 858 522.469 858 523.042C858 524.272 858.83 525.303 865.642 532.539C868.47 535.542 871.283 538 871.892 538C872.501 538 873 538.45 873 539C873 539.55 873.498 540 874.106 540C874.714 540 876.097 541.125 877.179 542.5C878.26 543.875 879.787 545 880.573 545C881.358 545 882 545.45 882 546C882 546.55 882.675 547 883.5 547C884.325 547 885 547.353 885 547.784C885 548.216 886.462 549.421 888.25 550.463C890.038 551.505 892.228 553.177 893.117 554.179C894.007 555.181 895.276 556 895.939 556C896.601 556 897.711 556.563 898.406 557.25C899.101 557.938 900.919 559.4 902.446 560.5C903.972 561.6 905.815 563.063 906.539 563.75C907.264 564.438 908.135 565 908.474 565C908.813 565 910.129 566.013 911.398 567.25C915.549 571.297 918.997 574 920.008 574C920.553 574 921.001 574.337 921.001 574.75C921.002 575.513 924.254 579.703 927.956 583.714C929.08 584.932 930 586.582 930 587.381C930 588.18 930.337 588.983 930.75 589.167C932.601 589.989 935 597.517 935 602.501C935 607.386 934.644 608.289 931.467 611.467C929.125 613.808 927 615 925.167 615C923.645 615 921.901 615.499 921.292 616.108C919.005 618.395 896 613.549 896 610.781C896 610.351 895.249 610 894.332 610C892.444 610 877.348 594.671 876.45 591.842C876.128 590.829 875.446 590 874.933 590C874.42 590 874 589.445 874 588.766C874 587.196 868.749 576.611 867.75 576.167C867.337 575.983 867 574.521 867 572.917C867 571.313 866.55 570 866 570C865.45 570 865 568.452 865 566.559C865 564.666 864.55 562.84 864 562.5C863.45 562.16 863 560.865 863 559.622C863 558.38 862.285 554.956 861.412 552.015C860.259 548.132 859.578 547.055 858.927 548.084C858.434 548.863 858.024 550.513 858.015 551.75C858.007 552.987 857.55 554 857 554C856.45 554 856 556.025 856 558.5C856 560.975 855.55 563 855 563C854.45 563 854 564.139 854 565.532C854 566.925 853.325 569.68 852.5 571.654C851.675 573.629 851 576.539 851 578.122C851 579.705 850.55 581 850 581C849.45 581 849 583.025 849 585.5C849 587.975 848.55 590 848 590C847.45 590 847 592.268 847 595.039C847 599.561 847.402 600.484 850.922 604.039C853.078 606.218 855.553 608 856.422 608C857.29 608 858 608.45 858 609C858 609.55 858.9 610 860 610C861.1 610 862.002 610.337 862.004 610.75C862.011 612.135 876.269 617 880.321 617C881.794 617 883 617.414 883 617.921C883 618.428 886.487 619.13 890.75 619.483C907.076 620.833 939 619.869 939 618.026C939 617.577 940.688 616.984 942.75 616.707C948.795 615.897 954.437 614.188 954.816 613.053C955.009 612.474 956.029 612 957.083 612C958.138 612 959 611.55 959 611C959 610.45 960.125 610 961.5 610C962.875 610 964 609.55 964 609C964 608.45 964.641 608 965.426 608C967.457 608 982 593.669 982 591.667C982 590.75 982.399 590 982.887 590C983.374 590 984.023 588.763 984.327 587.25C984.632 585.737 985.42 582.131 986.076 579.235C986.996 575.18 987.001 572.536 986.096 567.735C984.077 557.025 983.797 556 982.887 556C982.399 556 982 554.875 982 553.5C982 552.125 981.55 551 981 551C980.45 551 980 550.328 980 549.508C980 548.176 977.881 545.201 974.25 541.438C973.563 540.726 973 539.864 973 539.524C973 538.49 963.167 529 962.096 529C961.546 529 959.567 527.425 957.697 525.5C955.828 523.575 953.781 522 953.149 522C952.517 522 952 521.55 952 521C952 520.45 951.199 520 950.221 520C949.242 520 947.793 519.1 947 518C946.207 516.9 945.003 516 944.325 516C943.646 516 941.966 514.875 940.591 513.5C939.216 512.125 937.395 511 936.545 511C935.695 511 935 510.55 935 510C935 509.45 934.433 509 933.74 509C933.047 509 931.266 507.875 929.783 506.5C928.301 505.125 926.393 504 925.544 504C924.695 504 924 503.55 924 503C924 502.45 923.325 502 922.5 502C921.675 502 921 501.58 921 501.067C921 500.554 920.212 499.884 919.25 499.577C918.288 499.27 915.587 497.215 913.248 495.009C910.909 492.804 908.795 491 908.549 491C907.752 491 903 486.293 903 485.503C903 485.08 902.211 484.007 901.246 483.117C899.092 481.131 896 474.606 896 472.047C896 468.84 899.287 464.233 902.757 462.579C907.308 460.409 919.762 460.499 926.366 462.75C929.19 463.712 931.65 464.837 931.833 465.25C932.017 465.663 933.254 466 934.583 466C935.913 466 937 466.353 937 466.784C937 467.216 938.443 468.421 940.206 469.463C944.824 472.191 955 482.441 955 484.365C955 485.264 955.379 486 955.843 486C956.306 486 957.533 487.575 958.57 489.5C959.607 491.425 960.802 493 961.227 493C961.652 493 962 494.125 962 495.5C962 496.875 962.45 498 963 498C963.55 498 964 499.35 964 501C964 502.65 964.45 504 965 504C965.55 504 966 505.575 966 507.5C966 509.425 966.418 511 966.928 511C967.438 511 968.165 513.475 968.543 516.5C969.103 520.978 969.581 522 971.115 522C972.682 522 973 521.242 973 517.5C973 515.025 973.45 513 974 513C974.55 513 975 511.677 975 510.059C975 508.441 975.391 506.877 975.868 506.581C976.346 506.286 977.034 503.803 977.397 501.064C977.761 498.324 978.495 495.812 979.029 495.482C979.563 495.152 980 493.334 980 491.441C980 489.548 980.45 488 981 488C981.55 488 982 485.975 982 483.5C982 481.025 982.45 479 983 479C983.55 479 984 477.875 984 476.5C984 475.125 983.55 474 983 474C982.45 474 982 473.293 982 472.429C982 470.408 979.592 468 977.571 468C976.707 468 976 467.55 976 467C976 466.45 974.875 466 973.5 466C972.125 466 971 465.643 971 465.206C971 464.194 960.716 461 957.46 461C956.107 461 955 460.55 955 460C955 459.45 952.525 459 949.5 459C946.475 459 944 458.55 944 458C944 457.366 936.5 457 923.5 457C910.5 457 903 457.366 903 458ZM733 465C732.175 465.533 730.692 465.976 729.705 465.985C727.814 466.001 723 470.228 723 471.871C723 472.4 722.527 472.991 721.949 473.184C721.371 473.376 719.798 476.676 718.454 480.517C715.267 489.617 715.153 500.534 718.129 511.59C719.3 515.941 720.474 520.962 720.738 522.75C721.003 524.538 721.62 526 722.109 526C722.599 526 723 527.35 723 529C723 530.65 723.45 532 724 532C724.55 532 725 532.927 725 534.061C725 536.085 725.326 536.113 743.75 535.636C761.217 535.183 769.237 534.616 774.75 533.441C776.67 533.032 777 532.316 777 528.564C777 525.982 777.516 523.958 778.25 523.662C779.25 523.259 779.25 523.142 778.25 523.079C777.398 523.025 777 521.091 777 517C777 513.667 776.556 511 776 511C775.45 511 775 509.425 775 507.5C775 505.575 774.637 504 774.192 504C773.183 504 770 496.911 770 494.664C770 493.749 769.55 493 769 493C768.45 493 768 492.1 768 491C768 489.9 767.55 489 767 489C766.45 489 766 488.325 766 487.5C766 486.675 765.652 486 765.227 486C764.802 486 763.607 484.425 762.57 482.5C761.533 480.575 760.306 479 759.843 479C759.379 479 759 478.331 759 477.513C759 475.288 749.33 466 747.013 466C745.906 466 745 465.55 745 465C745 463.719 734.983 463.719 733 465Z" fill="#CA151C"/>
</svg>
